# xmcd
#
# Track frame offsets:
# 150
# 14380
# 24930
# 39160
# 52045
# 68890
# 82615
# 94015
# 108647
# 120817
# 136167
# 149840
# 163685
# 180692
#
# Disc length: 2569 seconds
#
#
# Revision: 0
# Processed by: cddbd v1.5.2PL0 Copyright (c) Steve Scherf et al.
# Submitted via: FreeRIP 2.944 
#
DISCID=ae0a070e
DTITLE=PEÃO CARREIRO and ZÉ PAULO - BIS
DYEAR=1900
DGENRE=SERTANEJAS
TTITLE0=ENCRUZILHADA
TTITLE1=PORTEIRO DE HOTEL
TTITLE2=CHORA MEU BEM
TTITLE3=AMOR VADIO
TTITLE4=PORTA DO MUNDO
TTITLE5=SEGUINDO SEUS PASSOS
TTITLE6=RABO DE SAIA
TTITLE7=NOITE DE VERÃO
TTITLE8=UMA VEZ POR SEMANA
TTITLE9=PASSARINHO PRISIONEIRO
TTITLE10=RECADO DE AMOR
TTITLE11=FESTA DE BRAVOS
TTITLE12=PERGUNTE A ELA
TTITLE13=CORO-CORÓ
EXTD=
EXTT0=
EXTT1=
EXTT2=
EXTT3=
EXTT4=
EXTT5=
EXTT6=
EXTT7=
EXTT8=
EXTT9=
EXTT10=
EXTT11=
EXTT12=
EXTT13=
PLAYORDER=
